<svg width="38" height="37" viewBox="0 0 38 37" fill="none" xmlns="http://www.w3.org/2000/svg"><path d="M19 37a18.38 18.38 0 01-13.081-5.419A18.38 18.38 0 01.5 18.5 18.38 18.38 0 015.919 5.419 18.38 18.38 0 0119 0a18.38 18.38 0 0113.081 5.419A18.38 18.38 0 0137.5 18.5c0 3.652-1.084 7.203-3.135 10.27a1.445 1.445 0 01-2.402-1.606 15.547 15.547 0 002.646-8.664C34.61 9.893 27.607 2.89 19 2.89S3.39 9.894 3.39 18.5 10.394 34.11 19 34.11c2.855 0 5.647-.778 8.075-2.248a1.446 1.446 0 011.497 2.472A18.47 18.47 0 0119 37zm-1.571-11.686l7.205-4.174a3.02 3.02 0 001.52-2.64 3.02 3.02 0 00-1.52-2.64l-7.205-4.174a3.012 3.012 0 00-3.045-.004 3.019 3.019 0 00-1.527 2.644v8.348c0 1.105.57 2.093 1.527 2.643.476.275.998.412 1.52.412.523 0 1.047-.138 1.525-.415zm-1.45-11.127l7.206 4.174c.021.013.079.046.079.139 0 .093-.058.126-.08.139l-7.204 4.174c-.023.013-.076.044-.153 0-.079-.046-.079-.11-.079-.139v-8.348c0-.028 0-.093.08-.14a.153.153 0 01.077-.022c.035 0 .06.015.075.023z" fill="#014495"/></svg>