<svg width="79" height="79" viewBox="0 0 79 79" fill="none" xmlns="http://www.w3.org/2000/svg"><circle cx="34.273" cy="45.422" r="33.339" fill="#F7F9FC"/><path d="M37.672 23.328h1.969v2h-1.97v-2zm6.891 21h1.968v2h-1.968v-2zm5.906 0h1.968v2H50.47v-2zm-2.953-4h1.968v2h-1.968v-2zm-22.641-3h1.969v2h-1.969v-2zm0 6h1.969v2h-1.969v-2zm2.953-3h1.969v2h-1.969v-2zm-2.953 9h1.969v2h-1.969v-2zm0 5h1.969v2h-1.969v-2zm2.953-8h1.969v2h-1.969v-2z" fill="#014495"/><path d="M73.878 58.328l-.798-3.242a1.003 1.003 0 00-.35-.546.975.975 0 00-.605-.212h-1.969v-17h-1.969v1.148l-3.937 4.306v-4.526l3.938-4.306v1.378h1.968v-20h4.922a.973.973 0 00.518-.15.994.994 0 00.362-.403l1.97-4a1.014 1.014 0 00-.185-1.154L71.14 2.914V1.328c0-.265-.104-.52-.289-.707a.977.977 0 00-.696-.293h-2.953a.973.973 0 00-.536.162.996.996 0 00-.364.432l-.64 1.464-42.867 4.949a.98.98 0 00-.624.327 1.01 1.01 0 00-.25.666v1h-1.969a.972.972 0 00-.837.474 1.01 1.01 0 00-.043.973l1.968 4a.994.994 0 00.363.404c.156.097.335.15.518.15h4.922v-2H22.53l-.984-2h12.188v2h-4.922v2h8.86v4h-.984a.973.973 0 00-.537.16.995.995 0 00-.363.433l-1.969 4.5a1.013 1.013 0 00.045.902l1.969 3.5a.973.973 0 00.855.504h.984v1.586l-2.665 2.707a1.005 1.005 0 00-.238 1.023l.985 3a1 1 0 00.358.495.974.974 0 00.575.19h3.938a.976.976 0 00.696-.294c.185-.187.288-.442.288-.707v-3h-1.968v2h-2.244l-.568-1.73 2.523-2.562a1.001 1.001 0 00.289-.708v-2h.984a.973.973 0 00.494-.135.992.992 0 00.36-.369l1.97-3.5a1.01 1.01 0 00.044-.902l-1.968-4.5a.995.995 0 00-.364-.432.973.973 0 00-.536-.162h-.984v-4h12.188l3.666 7.447a.994.994 0 00.363.404c.155.097.334.15.517.15h5.906v31h-1.968a.975.975 0 00-.606.21c-.173.138-.296.33-.35.547l-.797 3.242h-2.185v-15c0-.222-.073-.438-.207-.614l-1.827-2.386h.065v-3h-1.968v.514l-3.161-4.128a.987.987 0 00-.749-.386.972.972 0 00-.769.342l-6.89 8a1.01 1.01 0 00-.244.658v6.586l-3.241-3.293a.984.984 0 00-.697-.293.972.972 0 00-.696.293l-2.257 2.293v-9.586a1.014 1.014 0 00-.38-.79l-8.859-7a.974.974 0 00-.604-.21v-4h-1.97v4a.977.977 0 00-.695.293 1.008 1.008 0 00-.288.707v12h1.968v-11h.647l8.213 6.49v11.096l-1.68 1.707a1.002 1.002 0 00-.29.707v6h-6.89v-13h-1.968v13h-1.97v2h59.063v-2h-4.153zM41.492 24.772l-1.438 2.556h-2.795l-1.438-2.556 1.506-3.444h2.658l1.507 3.444zm26.696 16.643v5.061l-3.938 4.306v-5.061l3.938-4.306zm0-26.087v.148l-3.938 4.306v-4.454h3.938zm-3.938 7.393l3.938-4.306v4.597l-3.938 4.306V22.72zm0 12.597v-5.062l3.938-4.306v5.062l-3.938 4.306zm10.22-21.99H43.578v-2h31.876l-.984 2zm.2-4h-3.53V5.742l3.53 3.586zm-6.827-7h1.329v7H64.78l3.063-7zM23.891 9.221l40.845-4.715-2.11 4.822H23.89v-.107zm11.812 4.107v-2h5.906v2h-5.906zm21.28 8l-.984-2h2.345v-2h-3.33l-.984-2h8.251v6h-5.298zm7.267 32.393l3.938-4.306v4.913H64.25v-.607zm-18.703.607v4h-1.969v-6a1.014 1.014 0 00-.288-.707l-.696-.707v-.586h11.812v3h-7.875a.977.977 0 00-.696.293 1.008 1.008 0 00-.288.707zm2.908-18.43l5.951 7.773v4.657H42.594v-5.624l5.861-6.806zm-10.783 22.43v-4h-1.969v4h-3.937v-5.586l4.922-5 4.921 5v5.586h-3.937zm9.844 0v-3h6.89v3h-6.89zm13.073 0l.492-2h10.275l.493 2h-11.26z" fill="#014495"/></svg>