<svg width="85" height="73" viewBox="0 0 85 73" fill="none" xmlns="http://www.w3.org/2000/svg"><circle cx="36.132" cy="36.9" r="35.948" fill="#F7F9FC"/><path d="M81.237 11.744C79.306 9.33 76.715 8 73.942 8H36.32c-2.773 0-5.364 1.33-7.296 3.744-1.872 2.34-2.903 5.438-2.903 8.721v36.263c0 1.874 1.525 3.4 3.4 3.4h33.09a3.404 3.404 0 003.399-3.4V32.93h7.932c2.773 0 5.364-1.33 7.295-3.744 3.845-4.61 3.845-12.832 0-17.442zM63.743 56.728c0 .625-.508 1.133-1.133 1.133H29.52a1.134 1.134 0 01-1.133-1.133V20.465c0-5.623 3.559-10.199 7.933-10.199h31.744c-.503.435-.977.928-1.417 1.478-1.872 2.34-2.904 5.438-2.904 8.721v36.263zm2.267-26.064v-2.352c.2.301.412.593.637.874.44.55.914 1.044 1.416 1.478H66.01zm7.932 0c-4.374 0-7.932-4.575-7.932-10.199.44-13.531 15.425-13.529 15.864 0 0 5.624-3.558 10.199-7.932 10.199z" fill="#014495"/><path d="M73.942 13.666c-2.541 0-4.533 2.986-4.533 6.8.17 9.024 8.897 9.023 9.066-.001 0-3.813-1.99-6.8-4.533-6.8zm0 11.332c-1.07 0-2.266-1.939-2.266-4.533 0-2.594 1.196-4.533 2.266-4.533s2.267 1.939 2.267 4.533c0 2.594-1.197 4.533-2.267 4.533zM55.18 38.176l-7.352 7.351a1.133 1.133 0 001.603 1.603l7.352-7.352a1.133 1.133 0 00-1.603-1.602zm-4.27-6.608a1.134 1.134 0 00-1.603 0L37.614 43.261c-1.021 1.104.5 2.623 1.603 1.602L50.91 33.171a1.133 1.133 0 000-1.603zm-6.607-5.872a1.134 1.134 0 00-1.603 0l-7.352 7.351a1.133 1.133 0 101.603 1.603l7.352-7.351a1.133 1.133 0 000-1.603zm9.412 4.2c1.503-.06 1.502-2.207 0-2.266h-.001c-1.504.06-1.502 2.207 0 2.267z" fill="#014495"/></svg>