<svg width="75" height="73" viewBox="0 0 75 73" fill="none" xmlns="http://www.w3.org/2000/svg"><circle cx="36.132" cy="36.422" r="35.948" fill="#F7F9FC"/><path d="M38.317 4v.036c-7.741.352-13.681 3.605-14.126 7.775h-.045v40.448c0 .105.014.207.036.304.375 4.124 7.458 7.671 15.528 7.671 5.893 0 11.257-1.895 13.876-4.522h20.56V4H38.317zm33.044 2.783v46.146H55.198c.021-.12.027-.242.038-.366.023-.097.036-.199.036-.304V11.81h-.045c-.208-1.941-1.605-3.683-3.827-5.027h19.96zM48.577 55.712c-2.194.984-5.216 1.74-8.868 1.74-7.756 0-12.714-3.389-12.775-5.193h-.006V17.102c2.544 1.952 6.626 3.266 11.389 3.482.46.02.921.036 1.391.036s.932-.016 1.392-.036c4.763-.216 8.845-1.53 11.388-3.482v35.157h-.005a1.532 1.532 0 01-.208.671c-.239.435-.68.913-1.3 1.392-.622.479-1.43.956-2.398 1.39zM38.317 6.816a29.72 29.72 0 012.783 0c6.321.31 10.756 2.688 11.326 4.994.04.167.062.334.062.5 0 .294-.075.594-.205.891-.205.473-.57.942-1.073 1.392-1.815 1.623-5.442 2.982-10.11 3.21a27.916 27.916 0 01-2.784 0c-4.667-.228-8.296-1.587-10.11-3.21-.503-.45-.868-.918-1.074-1.392a2.245 2.245 0 01-.205-.892c0-.165.021-.332.063-.499.571-2.306 5.006-4.685 11.327-4.994z" fill="#014495"/><path d="M34.642 14.594c1.002.499 2.33.777 3.675.887a16.352 16.352 0 002.783 0c1.345-.11 2.673-.388 3.675-.887.7-.35 1.236-.808 1.51-1.392a2.08 2.08 0 00.136-1.391c-.4-1.687-2.832-2.468-5.321-2.673a17.15 17.15 0 00-1.391-.06c-.458 0-.925.02-1.392.06-2.489.204-4.92.986-5.321 2.673a2.08 2.08 0 00.137 1.391c.273.584.81 1.042 1.51 1.392zm6.458-1.911c-.421.043-.873.074-1.391.074-.519 0-.97-.031-1.392-.074-.817-.083-1.468-.224-1.919-.373.45-.15 1.102-.291 1.92-.373a13.138 13.138 0 012.782 0c.817.082 1.47.224 1.92.373-.452.15-1.103.29-1.92.373z" fill="#014495"/></svg>