<svg width="90" height="69" viewBox="0 0 90 69" fill="none" xmlns="http://www.w3.org/2000/svg"><circle cx="34.517" cy="34.376" r="34.333" fill="#F7F9FC"/><path d="M89.364 41.392l-.001-.004-.002-.004-11.542-26.757a6.358 6.358 0 00-1.837-2.446 8.463 8.463 0 00-5.277-1.852h-28.13a1.13 1.13 0 00-.082 0h-5.03a1.055 1.055 0 000 2.11h3.767l-1.902 8.814a9.8 9.8 0 00-6.153-2.147 9.872 9.872 0 00-4.121.897l1.958-4.539c.285-.662.71-1.23 1.23-1.645 0 0 .9-.628 1.394-.846a1.055 1.055 0 00-.851-1.93 8.416 8.416 0 00-1.86 1.128 6.37 6.37 0 00-1.85 2.458l-7.43 17.225a.968.968 0 00-.028.064l-4.084 9.466-.002.004-.001.004a1.05 1.05 0 00-.083.421v3.82a1.674 1.674 0 002.82 1.22 10.116 10.116 0 016.97-2.768 10.19 10.19 0 017.502 3.305 1.676 1.676 0 002.47.001 10.185 10.185 0 017.501-3.306 10.19 10.19 0 017.502 3.305 1.676 1.676 0 002.47.001 10.185 10.185 0 017.5-3.306 10.19 10.19 0 017.502 3.305 1.676 1.676 0 002.471.001 10.108 10.108 0 015.17-3.038 1.055 1.055 0 00-.483-2.054 12.197 12.197 0 00-5.922 3.33 12.306 12.306 0 00-8.738-3.654 12.3 12.3 0 00-8.735 3.654 12.303 12.303 0 00-8.737-3.654c-3.28 0-6.438 1.326-8.736 3.654a12.302 12.302 0 00-8.737-3.654c-2.815 0-5.508.953-7.68 2.7v-2.491c4.164-4.814 11.648-4.62 15.596.28.015.012.23.318.667.381.395.056.76-.105.986-.394 1.94-2.4 4.82-3.776 7.904-3.776 2.92 0 5.668 1.116 7.936 3.813a.924.924 0 00.126.124 1.056 1.056 0 001.457-.103c.014-.016.023-.025.038-.044l.001-.001a10.119 10.119 0 017.914-3.79c5.292 0 8.054 3.931 8.04 3.919.846.744 1.675-.266 1.501-.108 4.52-5.3 11.743-4.774 15.615-.301v2.491a12.175 12.175 0 00-5.865-2.566 1.055 1.055 0 00-.31 2.087 10.088 10.088 0 015.463 2.656 1.673 1.673 0 002.82-1.218v-3.82a1.04 1.04 0 00-.082-.422zm-54.002-1.755c-3.89-3.447-9.595-4.055-14.127-1.51L23.5 32.88a9 9 0 016.655-2.916c2.567 0 4.971 1.06 6.664 2.923l-1.457 6.751zm1.979-9.173a11.096 11.096 0 00-7.186-2.61c-1.757 0-3.465.41-4.994 1.173l2.267-5.255a7.675 7.675 0 015.747-2.557c2.165 0 4.194.88 5.637 2.431l-1.471 6.818zm15.051 8.8a12.214 12.214 0 00-7.682-2.699c-2.542 0-4.97.774-7 2.187l1.253-5.802c1.695-1.902 4.124-2.987 6.72-2.987 2.59 0 5.015 1.08 6.71 2.974v6.326zm0-9.18a11.11 11.11 0 00-6.71-2.23c-2.162 0-4.233.612-5.994 1.735l1.255-5.821a7.664 7.664 0 015.746-2.553c2.198 0 4.256.908 5.703 2.504v6.365zm0-9.17a9.818 9.818 0 00-5.703-1.808 9.834 9.834 0 00-5.036 1.374l1.734-8.042h9.005v8.475zm18.313-8.476a6.26 6.26 0 013.957 1.388c.514.412.936.978 1.22 1.637l1.958 4.54a9.88 9.88 0 00-4.123-.897 9.796 9.796 0 00-6.15 2.147l-1.903-8.815h5.041zm-16.203 0h9.005l1.735 8.042a9.842 9.842 0 00-5.039-1.374 9.81 9.81 0 00-5.701 1.807v-8.475zm0 11.28a7.662 7.662 0 015.701-2.503c2.221 0 4.298.927 5.748 2.553l1.255 5.82a11.138 11.138 0 00-5.997-1.734c-2.462 0-4.804.793-6.707 2.23V23.72zm7.68 12.847a12.21 12.21 0 00-7.68 2.698v-6.326c1.694-1.894 4.118-2.974 6.708-2.974 2.597 0 5.026 1.085 6.721 2.987l1.252 5.802a12.22 12.22 0 00-7-2.187zm5.9-12.919a7.667 7.667 0 015.635-2.43c2.215 0 4.301.93 5.75 2.556l2.266 5.255a11.19 11.19 0 00-4.996-1.173c-2.671 0-5.202.934-7.184 2.61l-1.471-6.818zm3.45 15.991l-1.456-6.751c1.691-1.863 4.095-2.923 6.661-2.923a9.002 9.002 0 016.657 2.916l2.265 5.248c-4.449-2.497-10.158-2.007-14.127 1.51z" fill="#014495"/></svg>