<svg width="75" height="71" viewBox="0 0 75 71" fill="none" xmlns="http://www.w3.org/2000/svg"><circle cx="35.335" cy="35.413" r="35.152" fill="#F7F9FC"/><path d="M47.434 15.424c-15.235 0-27.169 6.463-27.169 14.716 0 8.252 11.934 14.716 27.169 14.716 15.235 0 27.168-6.464 27.168-14.716 0-8.253-11.934-14.716-27.168-14.716zm0 27.168c-13.498 0-24.905-5.703-24.905-12.452 0-6.75 11.407-12.452 24.905-12.452 13.498 0 24.904 5.703 24.904 12.452S60.932 42.592 47.434 42.592z" fill="#014495"/><path d="M47.434 24.48c-6.455 0-11.32 2.434-11.32 5.66 0 3.227 4.865 5.66 11.32 5.66s11.32-2.433 11.32-5.66c0-3.226-4.865-5.66-11.32-5.66zm0 9.056c-5.529 0-9.056-2.01-9.056-3.396 0-1.385 3.527-3.396 9.056-3.396 5.529 0 9.056 2.01 9.056 3.396 0 1.386-3.528 3.396-9.056 3.396zm26.036-4.528c-.625 0-1.132.507-1.132 1.132v20.376c0 3.478-3.052 6.847-8.374 9.244a1.136 1.136 0 00-.566 1.5 1.134 1.134 0 001.498.565c6.168-2.78 9.706-6.903 9.706-11.309V30.14c0-.625-.507-1.132-1.132-1.132zM46.327 62.939c-13.123-.297-23.798-5.868-23.798-12.423V30.14a1.133 1.133 0 00-2.264 0v20.376c0 7.906 11.425 14.359 26.012 14.687h.025a1.132 1.132 0 00.025-2.264z" fill="#014495"/><path d="M66.225 53.109c.632-.473 1.585-1.187 1.585-2.602 0-1.414-.953-2.128-1.585-2.6-.57-.431-.679-.556-.679-.793 0-.238.109-.365.68-.79.631-.474 1.584-1.187 1.584-2.602 0-.625-.507-1.132-1.132-1.132H46.302a1.132 1.132 0 000 2.264h18.126c-.557.471-1.146 1.15-1.146 2.26 0 1.415.953 2.128 1.585 2.601.57.43.679.555.679.793 0 .235-.109.362-.68.787-.63.474-1.584 1.187-1.584 2.602 0 1.415.953 2.13 1.585 2.603.57.43.679.557.679.795 0 .24-.109.37-.68.797-.63.473-1.584 1.19-1.584 2.606 0 1.118.596 1.8 1.155 2.27H46.302a1.132 1.132 0 000 2.265h20.376c.625 0 1.132-.507 1.132-1.134 0-1.415-.953-2.133-1.585-2.606-.57-.43-.679-.557-.679-.797s.109-.37.68-.797c.631-.473 1.584-1.191 1.584-2.606 0-1.415-.953-2.13-1.585-2.604-.57-.428-.679-.554-.679-.792 0-.236.109-.363.68-.788z" fill="#014495"/></svg>