<svg width="86" height="75" viewBox="0 0 86 75" fill="none" xmlns="http://www.w3.org/2000/svg"><circle cx="34.273" cy="41.661" r="33.339" fill="#F7F9FC"/><path d="M84.304 46.152l-1.71-1.348V32.185c0-8.33-6.88-15.106-15.336-15.106h-1.514v-1.017c0-1.223-.808-2.264-1.926-2.633V1.836c0-.487-.4-.88-.893-.88a.887.887 0 00-.894.88v11.593c-1.118.369-1.926 1.41-1.926 2.633v1.017h-8.599a.887.887 0 00-.894.88c0 .486.4.88.894.88h2.1v14.837h-9.395V18.839h3.125a.887.887 0 00.894-.88c0-.486-.4-.88-.894-.88h-3.125v-1.017c0-1.223-.808-2.264-1.925-2.633V1.836c0-.487-.4-.88-.894-.88a.887.887 0 00-.894.88v11.593c-1.117.369-1.925 1.41-1.925 2.633v1.017h-5.324v-3.862c0-.486-.4-.88-.894-.88h-7.461a.887.887 0 00-.894.88v3.061c0 .486.4.88.894.88a.887.887 0 00.893-.88v-2.18h5.675v24.32h-5.675V20.387c0-.486-.4-.88-.893-.88a.887.887 0 00-.894.88V39.3c0 .486.4.88.894.88h7.461a.887.887 0 00.894-.88v-3.863h10.057l.012.001h20.638v9.367l-1.71 1.348a1.81 1.81 0 00-.696 1.428v.729c0 .877.724 1.591 1.615 1.591h2.58a.887.887 0 00.893-.88c0-.486-.4-.88-.894-.88h-2.407v-.56c0-.02.01-.04.025-.053l1.801-1.42h16.223l1.8 1.42a.069.069 0 01.027.053v.56H69.914a.887.887 0 00-.893.88c0 .486.4.88.893.88h13.47c.891 0 1.616-.714 1.616-1.591v-.73a1.81 1.81 0 00-.696-1.427zm-18.56-10.715h15.062v8.91H65.743v-8.91zm15.062-1.76H67.981l11.576-7.086a13.103 13.103 0 011.25 5.594v1.491h0zm-2.108-8.633l-11.07 6.776 6.88-10.905a13.555 13.555 0 014.19 4.129zm-5.761-4.974l-7.193 11.402V18.84h1.514c2.026 0 3.95.442 5.679 1.23zm-11.044-4.008c0-.56.462-1.017 1.032-1.017.569 0 1.032.457 1.032 1.017v1.017h-2.064v-1.017h0zm-21.533 0c0-.56.463-1.017 1.032-1.017.57 0 1.032.457 1.032 1.017v1.017H40.36v-1.017h0zm-7.111 2.777h9.175v14.837h-9.175V18.839zm22.145 14.837V18.839h8.563v14.837h-8.563zM82.17 52.814a.888.888 0 00-.895-.88.888.888 0 00-.89.81c-.038.033-.096.077-.138.109-.29.22-.828.632-.828 1.43 0 .8.538 1.21.828 1.431l.05.04a4.191 4.191 0 01-.05.039c-.29.22-.828.631-.828 1.43 0 .8.538 1.21.828 1.431l.051.04-.052.04c-.289.22-.827.631-.827 1.43 0 .486.4.88.894.88.47 0 .854-.356.89-.81.038-.033.096-.077.138-.11.29-.22.828-.631.828-1.43 0-.8-.538-1.21-.828-1.431a18.916 18.916 0 00-.051-.04 6.64 6.64 0 01.051-.039c.29-.22.828-.631.828-1.43 0-.8-.538-1.21-.828-1.431l-.05-.04.05-.038c.29-.221.828-.632.828-1.43zm-7.43 0c0-.486-.4-.88-.893-.88a.888.888 0 00-.89.81c-.038.033-.096.077-.138.109-.29.22-.828.632-.828 1.43 0 .8.538 1.21.828 1.431l.05.04-.05.039c-.29.22-.828.631-.828 1.43 0 .8.538 1.21.827 1.431l.052.04a4.916 4.916 0 01-.052.04c-.289.22-.827.631-.827 1.43 0 .486.4.88.894.88.47 0 .854-.357.89-.81.038-.033.096-.077.138-.11.29-.22.828-.631.828-1.43 0-.8-.538-1.21-.828-1.431l-.05-.04.05-.039c.29-.22.828-.632.828-1.43 0-.8-.538-1.21-.828-1.431a10.488 10.488 0 01-.05-.04l.05-.038c.29-.221.828-.632.828-1.43zm-7.427 0c0-.486-.4-.88-.893-.88a.889.889 0 00-.891.81c-.038.033-.096.077-.138.109-.29.22-.828.632-.828 1.43 0 .8.538 1.21.828 1.431l.05.04a6.662 6.662 0 01-.05.039c-.29.22-.828.631-.828 1.43 0 .8.538 1.21.828 1.431l.051.04-.051.04c-.29.22-.828.631-.828 1.43 0 .486.4.88.894.88.47 0 .854-.356.89-.81.038-.033.096-.077.138-.11.29-.22.828-.631.828-1.43 0-.8-.538-1.21-.828-1.431l-.05-.04.05-.039c.29-.22.828-.631.828-1.43 0-.8-.538-1.21-.828-1.431l-.05-.04.05-.038c.29-.221.828-.632.828-1.43z" fill="#014495" stroke="#014495" stroke-width=".3"/></svg>