<svg width="98" height="73" viewBox="0 0 98 73" fill="none" xmlns="http://www.w3.org/2000/svg"><circle cx="36.132" cy="36.661" r="35.948" fill="#F7F9FC"/><path d="M96.188 53.645H70.883c.396-.333.77-.696 1.115-1.091L83.06 39.901a7.476 7.476 0 00.747-8.874l-2.825-4.861c-.78-1.341-2.854-.136-2.075 1.205l2.833 4.875a5.088 5.088 0 01-.486 6.076L70.192 50.974a7.77 7.77 0 01-5.85 2.656h-4.52l1.797-8.45 13.853-8.506a3.975 3.975 0 001.55-4.98l-4.393-9.92 2.136-1.53 1.178 2.027c.754 1.297 2.852.132 2.075-1.206l-10.57-18.76c-1.049-2.064-4.735-1.617-4.746.9l-.02 4.236c0 1.523-.011 2.633.569 3.802l.619 1.246a3.405 3.405 0 002.853 1.874l.719 1.623c-.378.176-.744.39-1.094.642l-21.322 15.23c-.06-.045-.12-.09-.18-.133a8.236 8.236 0 001.463-5.431c-.16-1.764-.506-5.438-.506-5.438l-.069-.794a5.988 5.988 0 003.14-5.842 5.977 5.977 0 00-2.143-4.081 5.995 5.995 0 00-4.403-1.371 6.024 6.024 0 00-4.858 3.318c-.354-.01-.712 0-1.074.035-4.05.397-8.169 3.193-8.207 7.768-.012 1.335.454 2.724 1.493 3.605l.387 4.27a8.211 8.211 0 004.75 6.688c-.496 1.323-.611 2.936-.339 4.82a16.64 16.64 0 001.72 5.283c.693 1.34 2.841.27 2.13-1.103a14.279 14.279 0 01-1.475-4.524c-.228-1.58-.133-2.859.283-3.817a8.23 8.23 0 004.057-.509c-3.957 3.115.728 9.226 4.755 6.275l1.518-1.087c1.112 1.37 2.505 2.52 4.027 3.408l-1.697 3.495-2.462 5.072c-2.123-1.006-4-2.282-5.59-3.804-1.121-1.072-2.78.662-1.659 1.734 1.628 1.558 3.518 2.88 5.635 3.95H16.68a1.2 1.2 0 000 2.4h79.507a1.2 1.2 0 100-2.4zm-37.882-4.422l-.94 4.422c-2.662-.01-5.7-.408-7.788-1.005l4.07-8.385a19.342 19.342 0 005.436 1.308l-.778 3.66zm7.713-37.801l-.619-1.246c-.368-.741-.338-1.506-.338-2.412l.038-4.393c.065-.093.194-.004.229.061l4.039 7.45-2.29 1.071c-.454.067-.807-.11-1.06-.531zm3.037 2.283l1.493-.716 1.526 2.626a6.736 6.736 0 00-2.278-.236l-.741-1.674zm-26.512-2.547a3.611 3.611 0 012.652.825 3.594 3.594 0 011.289 2.453 3.6 3.6 0 01-1.298 3.116 8.548 8.548 0 00-5.184-5.005 3.628 3.628 0 012.541-1.39zm-5.914 3.351c3.361-.329 6.361 2.131 6.689 5.47l.422 4.892c-3.108-1.97-6.557-3.103-10.276-2.721-1.572.146-2.892-.497-2.877-2.24.027-3.16 3.06-5.108 6.042-5.4zm2.07 18.245c-3.107.28-5.962-2.113-6.242-5.207l-.273-3.02c2.226 0 6.223-.122 9.335 1.795l2.372 1.46a5.762 5.762 0 01-5.191 4.972zm5.842 6.18c-1.666 1.221-3.404-1.318-1.835-2.47l25.042-17.888a4.29 4.29 0 015.125.072L44.542 38.933zm4.882-.545L70.636 23.2l4.191 9.464a1.568 1.568 0 01-.61 1.964l-14.002 8.598c-.897-.02-3.695-.201-6.58-1.604l-.03-.017a13.029 13.029 0 01-3.603-2.573c-.196-.2-.388-.417-.578-.644z" fill="#014495"/></svg>