<svg width="80" height="69" viewBox="0 0 80 69" fill="none" xmlns="http://www.w3.org/2000/svg"><circle cx="34.517" cy="34.615" r="34.333" fill="#F7F9FC"/><path d="M50.65 10.918c0-7.56-4.605-10.257-8.55-10.266h-.02a11.662 11.662 0 00-6.199 2.019c-3.7 2.368-8.023 7.42-8.031 13.848a24.215 24.215 0 002.975 10.733A37.975 37.975 0 0136.4 46.385c0 9.266 5.315 10.267 7.6 10.267 2.57 0 8.55-.819 8.55-8.4a23.262 23.262 0 00-1.824-8.33 25.867 25.867 0 01-1.976-9.403c.033-3.215.345-6.422.933-9.585a58.45 58.45 0 00.967-10.016zm-20.9 5.6c.006-5.68 3.865-10.173 7.17-12.286a9.767 9.767 0 015.16-1.713h.02c4.103.01 6.65 3.228 6.65 8.4a56.74 56.74 0 01-.939 9.693 11.557 11.557 0 00-8.747 1.248 11.196 11.196 0 00-5.2 7.022 52.251 52.251 0 00-1.39-2.564 22.523 22.523 0 01-2.724-9.8zm5.782 16.1a8.221 8.221 0 01-.082-1.166 9.28 9.28 0 013.76-7.437 9.636 9.636 0 018.305-1.55 70.09 70.09 0 00-.264 1.883 7.654 7.654 0 00-2.301-.363c-3.114-.005-5.916 1.856-7.07 4.697a7.375 7.375 0 001.83 8.19c2.26 2.104 5.598 2.64 8.423 1.354.195.603.4 1.19.606 1.769-4.367 1.894-9.487.29-11.932-3.74a41.644 41.644 0 00-1.275-3.637zm11.377-4.349a3.808 3.808 0 00-1.96-.55c-1.652-.01-3.12 1.032-3.633 2.576a3.697 3.697 0 001.39 4.185c1.34.95 3.152.94 4.481-.026.116.677.257 1.323.416 1.944-2.33 1.212-5.203.695-6.946-1.25a5.524 5.524 0 01-.379-6.927c1.52-2.117 4.32-2.934 6.77-1.974a50.24 50.24 0 00-.14 2.022zm-.06 3.183c0 1.03-.85 1.866-1.9 1.866-1.048 0-1.9-.835-1.9-1.866 0-1.031.852-1.867 1.9-1.867 1.05 0 1.9.836 1.9 1.867zM44 54.785c-4.71 0-5.7-4.567-5.7-8.4a35.053 35.053 0 00-.604-6.325c3.252 2.682 7.764 3.34 11.67 1.703a19.088 19.088 0 011.285 6.489c0 5.4-3.617 6.533-6.65 6.533z" fill="#014495"/><path d="M47.215 44.319a.933.933 0 00-.71 1.12c.224.921.34 1.865.345 2.813 0 1.975-.397 2.8-2.85 2.8-.52 0-1.9 0-1.9-4.667 0-.497-.01-1.004-.03-1.502a.97.97 0 00-.986-.896.957.957 0 00-.66.3.924.924 0 00-.252.67c.018.473.028.955.028 1.428 0 4.396 1.243 6.533 3.8 6.533 4.21 0 4.75-2.493 4.75-4.666a13.902 13.902 0 00-.395-3.235.95.95 0 00-1.14-.698zM33.892 23.565a.955.955 0 00.783-.4.92.92 0 00.11-.86 17.598 17.598 0 01-1.235-5.786c0-3.913 2.737-7.42 5.452-9.16a5.895 5.895 0 013.079-1.032c2.372 0 2.869 2.496 2.869 4.592 0 2.146-.158 4.288-.475 6.412a.936.936 0 00.81 1.038.948.948 0 001.07-.777c.33-2.21.496-4.44.495-6.673 0-4.107-1.738-6.459-4.77-6.459a7.808 7.808 0 00-4.118 1.337C34.82 7.811 31.65 11.908 31.65 16.52a20.12 20.12 0 001.352 6.44.95.95 0 00.89.606zm42.282 3.687a24.215 24.215 0 002.976-10.733c-.008-6.427-4.331-11.48-8.03-13.847a11.668 11.668 0 00-6.201-2.02h-.02c-3.943.01-8.549 2.707-8.549 10.267.034 3.359.357 6.71.967 10.015.588 3.163.9 6.37.933 9.584a25.87 25.87 0 01-1.976 9.404 23.26 23.26 0 00-1.824 8.33c0 7.581 5.98 8.4 8.55 8.4 2.285 0 7.6-1 7.6-10.267a37.975 37.975 0 015.575-19.133zM62.05 29.585c1.05 0 1.9.836 1.9 1.867 0 1.03-.85 1.866-1.9 1.866-1.05 0-1.9-.835-1.9-1.866 0-1.031.85-1.867 1.9-1.867zm0 5.6c2.099 0 3.8-1.671 3.8-3.733 0-2.062-1.701-3.734-3.8-3.734a3.808 3.808 0 00-1.959.551 45.42 45.42 0 00-.139-2.022 5.718 5.718 0 012.098-.395c2.374-.008 4.504 1.43 5.347 3.61a5.535 5.535 0 01-1.557 6.189 5.78 5.78 0 01-6.443.747c.16-.62.3-1.266.416-1.943a3.812 3.812 0 002.237.73zm0 3.733c4.197 0 7.6-3.342 7.6-7.466 0-4.124-3.403-7.467-7.6-7.467a7.652 7.652 0 00-2.306.363 78.706 78.706 0 00-.264-1.882 9.636 9.636 0 018.308 1.546 9.28 9.28 0 013.762 7.44c0 .39-.027.78-.082 1.166a41.936 41.936 0 00-1.276 3.64c-2.444 4.03-7.564 5.634-11.932 3.74.208-.58.412-1.165.607-1.768a7.685 7.685 0 003.183.689zm2.85-36.4h.016a9.764 9.764 0 015.161 1.715c3.307 2.118 7.166 6.605 7.173 12.285a22.523 22.523 0 01-2.725 9.8 48.712 48.712 0 00-1.39 2.56 11.196 11.196 0 00-5.2-7.021 11.556 11.556 0 00-8.747-1.249 56.738 56.738 0 01-.938-9.69c0-5.171 2.55-8.39 6.65-8.4zM63 54.786c-3.033 0-6.65-1.133-6.65-6.533.047-2.22.482-4.414 1.285-6.489 3.906 1.638 8.417.98 11.67-1.703a35.053 35.053 0 00-.605 6.325c0 3.833-.989 8.4-5.7 8.4z" fill="#014495"/><path d="M65.915 43.988a.972.972 0 00-.986.896c-.02.497-.029 1.004-.029 1.501 0 4.667-1.38 4.667-1.9 4.667-2.454 0-2.85-.825-2.85-2.8.005-.948.12-1.892.345-2.813a.922.922 0 00-.26-.917.962.962 0 00-.945-.215.94.94 0 00-.645.71 13.9 13.9 0 00-.395 3.235c0 2.173.54 4.667 4.75 4.667 2.556 0 3.8-2.138 3.8-6.534 0-.473.01-.954.028-1.428a.924.924 0 00-.252-.67.957.957 0 00-.66-.3zm-5.271-26.396a.948.948 0 001.071.777.936.936 0 00.81-1.038 43.336 43.336 0 01-.475-6.412c0-2.096.497-4.592 2.869-4.592a5.893 5.893 0 013.08 1.034c2.714 1.739 5.45 5.245 5.45 9.158a17.598 17.598 0 01-1.234 5.786.92.92 0 00.143.94.96.96 0 001.638-.293 20.115 20.115 0 001.354-6.433c0-4.611-3.17-8.708-6.31-10.72a7.813 7.813 0 00-4.121-1.339c-3.031 0-4.77 2.352-4.77 6.459a45.056 45.056 0 00.495 6.673z" fill="#014495"/></svg>