<svg width="73" height="71" viewBox="0 0 73 71" fill="none" xmlns="http://www.w3.org/2000/svg"><circle cx="35.335" cy="35.652" r="35.152" fill="#F7F9FC"/><path d="M49.06 31.164a8.434 8.434 0 016.718 3.313.845.845 0 001.337-1.032 10.111 10.111 0 00-8.055-3.97c-3.768 0-7.153 2.032-8.944 5.333-4.958.69-8.788 4.978-8.788 10.15 0 5.65 4.572 10.246 10.19 10.246 2.692 0 5.142-1.054 6.965-2.774 1.924 1.756 4.775 2.784 7.82 2.784 2.676 0 5.202-.781 7.112-2.2 1.985-1.476 3.078-3.461 3.078-5.59 0-2.13-1.093-4.115-3.078-5.59-1.19-.884-2.617-1.52-4.17-1.875.001-.079.005-.158.005-.237 0-.946-.128-1.883-.38-2.785a.845.845 0 00-1.627.456c.209.745.315 1.518.318 2.3-.415-.038-.835-.06-1.259-.06-1.963 0-3.828.415-5.454 1.203-1.5-3.42-4.807-5.864-8.698-6.105a8.424 8.424 0 016.91-3.567zm7.242 10.158c4.688 0 8.502 2.737 8.502 6.101 0 3.365-3.814 6.102-8.502 6.102-2.634 0-5.077-.868-6.69-2.35a10.292 10.292 0 001.787-8.727c1.431-.729 3.147-1.126 4.903-1.126zm-6.282 3.636c0 4.718-3.814 8.557-8.501 8.557-4.688 0-8.502-3.839-8.502-8.557 0-4.72 3.814-8.558 8.502-8.558 4.688 0 8.501 3.839 8.501 8.558z" fill="#014495" stroke="#014495" stroke-width=".5"/><path d="M68.687 15.921a6.5 6.5 0 01-2.79-5.336v-.14h.732c1.086 0 1.97-.884 1.97-1.97V3.97A1.972 1.972 0 0066.63 2H30.37c-1.086 0-1.97.884-1.97 1.97v4.505c0 1.086.884 1.97 1.97 1.97h.732v.14a6.501 6.501 0 01-2.79 5.336 8.19 8.19 0 00-3.516 6.724v30.249a6.766 6.766 0 006.759 6.758h6.056a.844.844 0 100-1.69h-6.056a5.075 5.075 0 01-5.07-5.069V22.646a6.501 6.501 0 012.79-5.337 8.19 8.19 0 003.516-6.723v-.14h3.74a.844.844 0 100-1.689h-6.16a.282.282 0 01-.282-.281V3.97c0-.156.126-.282.281-.282h36.26c.155 0 .281.126.281.282v4.504a.282.282 0 01-.281.281H40.2a.844.844 0 100 1.69h24.009v.139a8.19 8.19 0 003.515 6.723 6.5 6.5 0 012.79 5.337v30.249a5.075 5.075 0 01-5.069 5.069H41.32a.844.844 0 100 1.689h24.124a6.766 6.766 0 006.758-6.758v-30.25a8.19 8.19 0 00-3.515-6.723z" fill="#014495" stroke="#014495" stroke-width=".5"/><path d="M59.514 50.919c2.053 0 3.66-1.285 3.66-2.925s-1.607-2.924-3.66-2.924c-2.052 0-3.659 1.284-3.659 2.924s1.608 2.925 3.66 2.925zm0-4.16c1.162 0 1.971.65 1.971 1.235 0 .584-.81 1.236-1.97 1.236-1.162 0-1.971-.651-1.971-1.236 0-.584.81-1.235 1.97-1.235zm-21.148-7.882a3.664 3.664 0 00-3.66 3.66 3.664 3.664 0 003.66 3.659 3.664 3.664 0 003.66-3.66 3.664 3.664 0 00-3.66-3.66zm0 5.63a1.973 1.973 0 01-1.97-1.97c0-1.087.883-1.971 1.97-1.971 1.086 0 1.97.884 1.97 1.97 0 1.087-.884 1.97-1.97 1.97zm6.306 5.855a2.65 2.65 0 002.646-2.646 2.65 2.65 0 00-2.646-2.646 2.65 2.65 0 00-2.647 2.646 2.65 2.65 0 002.647 2.646zm0-3.603a.958.958 0 010 1.914.958.958 0 010-1.914z" fill="#014495" stroke="#014495" stroke-width=".5"/></svg>