<svg width="82" height="68" viewBox="0 0 82 68" fill="none" xmlns="http://www.w3.org/2000/svg"><circle cx="34.273" cy="33.9" r="33.339" fill="#F7F9FC"/><path fill-rule="evenodd" clip-rule="evenodd" d="M38.955 13.081a8.681 8.681 0 00-1.336.497c-.412.194-1.072.593-1.466.886-.395.293-.934.818-1.197 1.168-.265.35-.945 1.635-1.513 2.857-.568 1.221-1.192 2.498-1.386 2.837-.193.339-.51.814-.703 1.057l-.35.441v-.95c0-.854-.03-.98-.286-1.236l-.285-.285H25.07l-.285.285c-.277.277-.285.333-.285 2.02 0 1.515.027 1.769.215 2 .176.217.537.332 1.987.627l1.772.361-1.913 1.534c-1.052.844-2.13 1.768-2.393 2.055-.264.286-.67.818-.904 1.183-.233.364-.574.994-.758 1.4a11.428 11.428 0 00-.563 1.693c-.218.906-.23 1.396-.23 9.435 0 5.829.04 8.625.128 8.944.083.3.341.677.726 1.062.385.385.762.643 1.062.726.298.082 1.942.128 4.596.128 3.411 0 4.223-.03 4.655-.177.301-.103.728-.387 1.004-.668.264-.27.56-.719.659-.998.115-.326.179-.92.179-1.655V49.16h33.454v1.132c0 .623.059 1.342.13 1.597.082.3.34.677.725 1.062.384.385.762.643 1.061.726.299.082 1.943.128 4.597.128 3.41 0 4.223-.03 4.655-.177.3-.103.727-.387 1.003-.668.264-.27.561-.719.66-.998.154-.44.178-1.647.178-9.002-.001-8.053-.013-8.544-.23-9.45a11.428 11.428 0 00-.564-1.694 13.516 13.516 0 00-.763-1.407 10.465 10.465 0 00-.971-1.25c-.3-.32-1.371-1.241-2.383-2.049l-1.84-1.467 1.767-.36c1.445-.294 1.806-.409 1.982-.626.188-.231.215-.485.215-2 0-1.687-.008-1.743-.285-2.02l-.286-.285h-5.364l-.285.285c-.257.256-.285.381-.285 1.236v.95l-.351-.44c-.193-.244-.51-.72-.703-1.058-.194-.339-.817-1.616-1.385-2.837-.568-1.222-1.25-2.508-1.513-2.857-.264-.35-.803-.874-1.197-1.164-.395-.29-1.017-.68-1.384-.866a7.584 7.584 0 00-1.394-.508c-.618-.146-2.515-.17-12.575-.163-8.937.006-11.993.043-12.435.15zm24.649 1.859c.329.087.873.309 1.21.492a7.5 7.5 0 011.179.842c.429.386.704.796 1.131 1.685.311.646.883 1.848 1.273 2.672.389.824.707 1.516.707 1.54 0 .022-7.945.04-17.656.04-9.711 0-17.657-.027-17.657-.06s.201-.465.446-.958c.245-.494.775-1.617 1.178-2.497.433-.947.913-1.805 1.178-2.106a6.03 6.03 0 011.056-.9 7.63 7.63 0 011.367-.648l.758-.258 11.616-.002c9.475-.002 11.726.027 12.214.158zm-34.459 8.085c0 .447-.04.81-.087.807a44.143 44.143 0 01-1.365-.265l-1.278-.26-.035-.548-.035-.547h2.8v.813zm47.37-.266l-.035.547-1.278.26a39.77 39.77 0 01-1.365.266c-.048.003-.087-.36-.087-.807v-.813h2.8l-.034.547zm-5.93 1.486c.053.096.487.62.963 1.164a17.91 17.91 0 001.826 1.764c.528.426.92.812.871.857-.048.045-1.555.665-3.348 1.377l-3.26 1.296-1.327 1.33-1.326 1.33H53.853l-1.203 1.184-1.202 1.183-1.203-1.183-1.203-1.184H37.911l-1.33-1.334-1.33-1.334-3.256-1.293c-1.791-.71-3.293-1.326-3.337-1.367-.044-.04.338-.413.848-.829.51-.415 1.33-1.214 1.82-1.776.491-.561.936-1.097.988-1.19.083-.148 2.56-.17 19.134-.17 16.83 0 19.05.02 19.136.175zm-39.893 6.662c1.905.763 3.496 1.42 3.535 1.46.04.039-.131.279-.38.533l-.451.463h-3.691c-3.114 0-3.764-.03-4.156-.186-.277-.11-.56-.34-.7-.566-.128-.208-.234-.481-.234-.607 0-.125.16-.469.355-.764.196-.295.673-.83 1.062-1.19.527-.489.767-.638.951-.592.135.034 1.804.686 3.709 1.45zm46.205-.835c.38.362.847.894 1.037 1.182.19.287.347.625.347.75 0 .126-.106.399-.235.608a1.57 1.57 0 01-.7.565c-.391.157-1.042.186-4.155.186H69.5l-.452-.463c-.248-.254-.422-.492-.386-.528.036-.036 1.679-.714 3.651-1.506 1.972-.793 3.656-1.444 3.74-1.447.085-.003.465.29.844.653zm-40.483 4.453l.726.697h11.101l1.41 1.393c1.233 1.219 1.46 1.394 1.797 1.394.337 0 .563-.175 1.795-1.394l1.41-1.394h11.102l.745-.715.745-.715.745.715.745.715h4.232c3.314 0 4.35-.035 4.778-.164.3-.09.73-.305.955-.476.225-.172.445-.277.488-.233.044.043.097.885.117 1.87l.037 1.791h-2.597c-1.926 0-2.77.045-3.261.173a8.223 8.223 0 00-1.347.518c-.375.189-.871.522-1.103.74-.319.302-.42.49-.42.783a1 1 0 00.252.654.863.863 0 00.596.269c.206 0 .619-.185 1.037-.464.382-.255.96-.542 1.284-.639.344-.102 1.047-.175 1.686-.175h1.095l-.045.797c-.036.642-.105.876-.355 1.203a2.34 2.34 0 01-.711.597c-.318.15-.771.19-2.161.19-1.713 0-1.767.008-2.044.286a.936.936 0 00-.285.644c0 .23.106.465.294.654l.294.294 2.058-.038c1.906-.036 2.1-.06 2.636-.323a4.77 4.77 0 001.051-.758c.26-.26.599-.732.751-1.047.202-.417.291-.836.328-1.536l.05-.963h.916l-.036 2.7c-.033 2.368-.064 2.751-.254 3.108a4.223 4.223 0 01-.522.736 3.578 3.578 0 01-.771.581c-.446.24-.626.252-4.34.286l-3.877.035-1.356-1.328c-.954-.934-1.57-1.436-2.077-1.692a8.505 8.505 0 00-1.384-.536c-.569-.148-2.508-.173-13.509-.173-11 0-12.94.025-13.509.173a8.501 8.501 0 00-1.384.536c-.506.256-1.122.758-2.076 1.692l-1.357 1.328-3.644-.035c-3.29-.032-3.682-.056-4.05-.252a4.22 4.22 0 01-.736-.522 3.572 3.572 0 01-.58-.771c-.234-.431-.254-.659-.288-3.165l-.037-2.701h.916l.05.963c.037.7.126 1.12.328 1.536.153.315.49.786.751 1.047.26.26.734.601 1.052.758.535.263.729.287 2.635.323l2.058.038.294-.294a.943.943 0 00.295-.654.936.936 0 00-.285-.644c-.278-.278-.332-.285-2.044-.285-1.39 0-1.844-.04-2.161-.19a2.373 2.373 0 01-.712-.598c-.25-.328-.319-.561-.355-1.203l-.045-.797h1.096c.638 0 1.341.073 1.685.175.325.097.903.384 1.285.639.398.266.833.464 1.02.464.18 0 .448-.114.596-.253a.852.852 0 00.268-.654c0-.311-.094-.491-.42-.798-.232-.219-.728-.552-1.103-.741a8.223 8.223 0 00-1.346-.518c-.492-.128-1.336-.173-3.261-.173h-2.598l.037-1.79c.02-.986.073-1.828.117-1.871.044-.044.264.061.488.233.225.171.655.386.956.476.428.129 1.463.164 4.78.164h4.232l.715-.694c.392-.382.736-.696.762-.697.027-.001.375.311.774.695zM64.993 45.83c.407.187.95.572 1.273.9l.564.572H35.603l.459-.474c.253-.26.683-.607.957-.769a5.74 5.74 0 01.987-.448c.397-.125 2.951-.15 13.384-.132l12.893.023.71.328zM29.05 49.138l3.812.034v.976c0 .537-.058 1.104-.129 1.26a.968.968 0 01-.412.411c-.189.087-1.551.13-4.105.13-2.554 0-3.917-.043-4.106-.13a.968.968 0 01-.412-.412c-.072-.158-.129-.91-.129-1.708v-1.425l.835.414.834.414 3.812.036zm50.156 2.24a.957.957 0 01-.416.44c-.196.088-1.517.13-4.11.13-2.554 0-3.917-.042-4.106-.129a.968.968 0 01-.412-.412c-.07-.155-.129-.722-.129-1.259v-.976l3.808-.034 3.807-.035.81-.407.81-.407.033 1.39c.02.825-.02 1.515-.095 1.698z" fill="#014495"/></svg>