<svg width="80" height="79" viewBox="0 0 80 79" fill="none" xmlns="http://www.w3.org/2000/svg"><path d="M52.77 48.125H37.931V34.722c0-.718-.478-1.197-1.196-1.197s-1.197.48-1.197 1.197v20.942l-.24-.12-7.778-14.24c-.957-2.274-3.111-3.71-5.505-3.71H6.1c-.718 0-1.196.479-1.196 1.197v11.01C2.51 50.279.835 52.433.835 54.946V71.94c0 .719.479 1.197 1.197 1.197h2.991C5.262 76.367 8.014 79 11.485 79c3.35 0 6.103-2.633 6.462-5.864h4.188c.36 3.35 3.112 5.864 6.462 5.864 3.351 0 6.103-2.633 6.462-5.864h1.676c.718 0 1.197-.598 1.197-1.197V50.52H52.77c.718 0 1.196-.479 1.196-1.197 0-.718-.479-1.197-1.197-1.197zM7.296 39.868h14.72v.24c1.435 0 2.752.837 3.35 2.273 0 0 0 .12.12.12l5.983 11.01-.12-.12c-.598-.24-1.316-.24-1.794.12-.599.358-.838.957-.838 1.555v2.752h-9.454v-5.863a2.4 2.4 0 00-2.393-2.394H7.296v-9.693zm4.189 36.738a4.035 4.035 0 01-4.07-4.068 4.035 4.035 0 014.07-4.07 4.035 4.035 0 014.068 4.07c0 2.273-1.914 4.069-4.069 4.069zm17.112 0a4.035 4.035 0 01-4.069-4.068 4.035 4.035 0 014.07-4.07 4.035 4.035 0 014.068 4.07 4.036 4.036 0 01-4.069 4.069zm6.941-5.863h-.837c-.838-2.753-3.232-4.667-6.223-4.667-2.992 0-5.505 2.034-6.223 4.667h-4.667c-.838-2.753-3.231-4.667-6.223-4.667S5.86 68.11 5.142 70.743H3.227V64.52h32.311v6.223zm.12-8.616H3.228v-7.061c0-1.675 1.316-2.992 2.871-2.992h10.65v7.06c0 .719.48 1.197 1.198 1.197h11.847c.718 0 1.197-.478 1.197-1.196v-3.112l4.667 2.513v3.59z" fill="#014495"/><path d="M79.337 26.346L41.043.257c-.36-.239-.958-.239-1.317 0L1.313 26.345c-.48.24-.599.838-.48 1.317.12.478.6.837 1.198.837h.718v6.822c0 .718.478 1.196 1.197 1.196.718 0 1.196-.478 1.196-1.197V28.5h70.366v48.106H38.17c-.718 0-1.197.48-1.197 1.197 0 .718.479 1.197 1.197 1.197h38.533c.718 0 1.197-.479 1.197-1.197V28.5h.718c.479 0 .957-.359 1.197-.837.12-.479-.12-1.077-.48-1.316zm-73.477-.24L40.325 2.651 74.79 26.106H5.86z" fill="#014495"/><path d="M54.087 58.895H41.641c-.718 0-1.196.48-1.196 1.197v12.446c0 .718.478 1.197 1.196 1.197h12.446c.718 0 1.197-.479 1.197-1.197V60.092c0-.718-.599-1.197-1.197-1.197zM52.89 71.341H42.838V61.289H52.89V71.34zm18.669-12.446H59.113c-.718 0-1.197.48-1.197 1.197v12.446c0 .718.479 1.197 1.197 1.197h12.446c.718 0 1.196-.479 1.196-1.197V60.092c0-.718-.478-1.197-1.196-1.197zm-1.197 12.446H60.31V61.289h10.052V71.34zm1.197-29.917H59.113c-.718 0-1.197.478-1.197 1.197v12.445c0 .598.479 1.197 1.197 1.197h12.446c.718 0 1.196-.479 1.196-1.197V42.62c0-.718-.478-1.196-1.196-1.196zm-1.197 12.445H60.31V43.817h10.052V53.87z" fill="#014495"/><path d="M54.087 31.73H41.641c-.718 0-1.196.48-1.196 1.197v12.446c0 .718.478 1.197 1.196 1.197h12.446c.718 0 1.197-.479 1.197-1.197V32.927c0-.718-.48-1.196-1.197-1.196zM52.89 44.057H42.838V34.005H52.89v10.053z" fill="#E30119"/><path d="M40.564 8.634c-4.069 0-7.42 3.351-7.42 7.42s3.351 7.42 7.42 7.42 7.42-3.351 7.42-7.42-3.351-7.42-7.42-7.42zm0 12.446c-2.752 0-5.026-2.274-5.026-5.026s2.274-5.026 5.026-5.026 5.026 2.273 5.026 5.026c0 2.752-2.274 5.026-5.026 5.026z" fill="#014495"/></svg>