<svg width="90" height="89" viewBox="0 0 90 89" fill="none" xmlns="http://www.w3.org/2000/svg"><path d="M64.155 89h-6.907v-2.778h5.518v-8.335h-9.724a1.39 1.39 0 01-1.39-1.39v-16.67h2.78V75.11h9.723c.767 0 1.39.622 1.39 1.389V87.61A1.39 1.39 0 0164.154 89zm-9.685 0H25.259a1.39 1.39 0 01-1.39-1.39V76.499c0-.767.623-1.39 1.39-1.39h9.724v-15.28h2.778v16.67a1.39 1.39 0 01-1.389 1.389h-9.724v8.335H54.47V89zM37.761 37.601h-2.778v-5.556H23.87a1.39 1.39 0 01-1.181-2.12l11.18-18.06 2.361 1.463-9.866 15.939h10.008c.767 0 1.39.622 1.39 1.389V37.6zm16.67 0h-2.778V2.873h-8.95L37.95 10.55l-2.362-1.463 5.16-8.335a1.39 1.39 0 011.18-.658h11.114a1.39 1.39 0 011.389 1.39V37.6z" fill="#014495"/><path d="M88.454 63.01a89.284 89.284 0 00-11.61-5.49l3.372-9.132a1.39 1.39 0 00-.822-1.784 99.927 99.927 0 00-55.778-3.944l.585 2.716a97.146 97.146 0 0152.924 3.362l-3.85 10.426a86.236 86.236 0 00-57.097 0l-3.85-10.426a97.59 97.59 0 019.134-2.73l-.664-2.698c-3.626.892-7.24 2-10.74 3.294a1.389 1.389 0 00-.821 1.784l3.372 9.132a89.298 89.298 0 00-11.61 5.49 1.39 1.39 0 00.137 2.488c2.267.97 4.5 2.045 6.65 3.204a80.854 80.854 0 00-1.327 6.168 1.39 1.39 0 002.051 1.448 73.564 73.564 0 0121.876-8.107 1.39 1.39 0 001.112-1.226c.297-3 .7-6.034 1.202-9.035a83.513 83.513 0 0124.052 0c.502 3.001.905 6.036 1.202 9.035a1.39 1.39 0 001.112 1.225l.553.113h.003a73.833 73.833 0 0111.029 3.19l.978-2.601a76.568 76.568 0 00-7.106-2.281 72.034 72.034 0 0110.036-4.382c.041-.015.082-.03.123-.05a1.39 1.39 0 00.722-.78l.477-1.292a86.548 86.548 0 018.758 3.973 84.24 84.24 0 00-5.267 2.69 1.39 1.39 0 00-.666 1.577c.37 1.368.704 2.748.998 4.127a76.787 76.787 0 00-5.246-2.454l-1.08 2.56a74.023 74.023 0 017.564 3.718 1.388 1.388 0 002.052-1.448 80.847 80.847 0 00-1.327-6.168 82.325 82.325 0 016.65-3.204 1.39 1.39 0 00.137-2.487zM9.749 72.495c.294-1.38.627-2.76.997-4.126a1.39 1.39 0 00-.665-1.577 84.369 84.369 0 00-5.268-2.69 86.544 86.544 0 018.759-3.974l.477 1.292a1.39 1.39 0 00.853.833 72.027 72.027 0 0110.026 4.379 76.327 76.327 0 00-15.18 5.863zm19.095-6.857a73.23 73.23 0 00-9.4-4.636 83.289 83.289 0 0110.364-2.578 139.379 139.379 0 00-.964 7.214zM70.01 61a73.198 73.198 0 00-9.4 4.636 139.53 139.53 0 00-.964-7.214A83.334 83.334 0 0170.01 61z" fill="#014495"/><path d="M11.368 19.543a1.39 1.39 0 01-1.22-.723l-2.26-4.133-4.133-2.26a1.39 1.39 0 010-2.438l4.133-2.26 2.261-4.134a1.389 1.389 0 012.437 0l2.26 4.133 4.134 2.26a1.39 1.39 0 010 2.438l-4.133 2.26-2.26 4.134a1.39 1.39 0 01-1.22.723zm-4.051-8.335l2.261 1.236a1.4 1.4 0 01.553.553l1.237 2.261 1.236-2.261a1.39 1.39 0 01.553-.553l2.261-1.236-2.261-1.237a1.39 1.39 0 01-.552-.552l-1.237-2.262-1.237 2.262a1.389 1.389 0 01-.552.552l-2.262 1.237zm70.729 30.591a1.39 1.39 0 01-1.218-.723l-2.261-4.133-4.133-2.26a1.39 1.39 0 010-2.438l4.133-2.26 2.26-4.134a1.39 1.39 0 012.438 0l2.26 4.134 4.134 2.26a1.39 1.39 0 010 2.438l-4.133 2.26-2.26 4.133a1.39 1.39 0 01-1.22.723zm-4.05-8.335l2.261 1.237c.233.127.425.319.552.552l1.237 2.262 1.237-2.262c.128-.233.32-.425.553-.552l2.261-1.237-2.261-1.237a1.388 1.388 0 01-.553-.552l-1.237-2.262-1.237 2.262a1.39 1.39 0 01-.552.552l-2.261 1.237z" fill="#E30119"/></svg>