<svg width="75" height="86" viewBox="0 0 75 86" fill="none" xmlns="http://www.w3.org/2000/svg"><path d="M25.113 18.514h5.51v11.018A1.377 1.377 0 0032 30.91h11.018a1.377 1.377 0 001.377-1.378V18.514h5.51a1.377 1.377 0 001.065-2.25L38.575 1.116a1.377 1.377 0 00-2.132 0l-12.396 15.15a1.377 1.377 0 001.066 2.25zM37.51 4.162l9.489 11.598h-3.98a1.377 1.377 0 00-1.377 1.377v11.018h-8.264V17.137A1.377 1.377 0 0032 15.76h-3.98l9.489-11.598z" fill="#014495"/><path d="M74.378 25.726a1.377 1.377 0 00-1.94.164L58.905 41.928H16.118L2.758 25.897a1.377 1.377 0 10-2.117 1.762l13.454 16.145V81.18a4.826 4.826 0 004.82 4.82h37.187a4.826 4.826 0 004.82-4.82V43.808l13.62-16.142a1.378 1.378 0 00-.164-1.94zM29.245 44.682h16.527v15.53l-7.58-4.33a1.382 1.382 0 00-1.367 0l-7.58 4.33v-15.53zM58.168 81.18a2.068 2.068 0 01-2.066 2.066H18.916a2.067 2.067 0 01-2.066-2.066V44.682h9.64v17.905a1.378 1.378 0 002.062 1.196l8.957-5.12 8.957 5.12a1.378 1.378 0 002.061-1.196V44.682h9.64V81.18z" fill="#014495"/><path d="M41.64 70.85a1.378 1.378 0 00-1.377 1.377v6.887a1.377 1.377 0 001.377 1.377h12.396a1.377 1.377 0 001.377-1.377v-6.887a1.377 1.377 0 00-1.377-1.377H41.64zm11.018 6.887h-9.64v-4.132h9.64v4.132z" fill="#014495"/><path d="M43.018 32.287H32a1.377 1.377 0 00-1.378 1.377v4.132A1.377 1.377 0 0032 39.173h11.018a1.377 1.377 0 001.377-1.377v-4.132a1.377 1.377 0 00-1.377-1.377zm-1.378 4.132h-8.263V35.04h8.263v1.378z" fill="#E30119"/></svg>