<svg width="81" height="80" viewBox="0 0 81 80" fill="none" xmlns="http://www.w3.org/2000/svg"><path d="M5.969 62.578v5.313a1.328 1.328 0 001.328 1.328h21.25a1.328 1.328 0 001.328-1.328v-5.313a11.967 11.967 0 00-7.468-11.073 6.64 6.64 0 10-8.97 0 11.967 11.967 0 00-7.468 11.073zm11.953-19.922a3.985 3.985 0 110 7.97 3.985 3.985 0 010-7.97zm0 10.625a9.308 9.308 0 019.297 9.297v3.984H8.625v-3.984a9.308 9.308 0 019.297-9.297z" fill="#014495"/><path d="M20.554 6.612a1.328 1.328 0 00-2.608 0c-1.403 7.305-2.202 8.102-9.505 9.506a1.328 1.328 0 000 2.608c7.304 1.401 8.101 2.2 9.505 9.506a1.328 1.328 0 002.608 0c1.403-7.305 2.202-8.102 9.506-9.506a1.328 1.328 0 000-2.608c-7.304-1.401-8.103-2.201-9.506-9.506zM19.25 22.636a7.925 7.925 0 00-5.213-5.214 7.925 7.925 0 005.213-5.214 7.925 7.925 0 005.213 5.214 7.924 7.924 0 00-5.213 5.214z" fill="#E30119"/><path d="M45.813 22.734a7.937 7.937 0 002.08 5.351 5.101 5.101 0 00-4.737 5.074v14.81a1.328 1.328 0 001.328 1.328h18.594a1.329 1.329 0 001.328-1.328V39.19l15.586-16.883a1.328 1.328 0 00-.976-2.23V1.484A1.328 1.328 0 0077.687.156h-13.28a1.328 1.328 0 00-.798 2.39l3.896 2.923-3.896 2.922a1.329 1.329 0 00.797 2.39H76.36v9.297h-2.656c-.262 0-.519.078-.737.223l-11.614 7.746h-1.647a7.969 7.969 0 10-13.892-5.313zM68.39 8.125l2.125-1.594a1.328 1.328 0 000-2.125L68.39 2.813h7.968v5.312H68.39zm-6.64 22.578c.262 0 .519-.078.737-.223l11.615-7.746h1.876L62.102 37.77a1.337 1.337 0 00-.352.902v7.969H45.812V33.159a2.458 2.458 0 012.456-2.456H61.75zm-2.656-7.969a5.312 5.312 0 11-10.624 0 5.312 5.312 0 0110.624 0zm-57.11 57.11h34.532a1.329 1.329 0 001.328-1.328v-5.313a1.328 1.328 0 00-1.328-1.328H1.984a1.328 1.328 0 00-1.328 1.328v5.313a1.328 1.328 0 001.328 1.328zm1.329-5.313h31.875v2.656H3.311v-2.656zm38.515-22.578a1.328 1.328 0 00-1.328 1.328v5.313a1.328 1.328 0 001.328 1.328H76.36a1.328 1.328 0 001.329-1.328V53.28a1.328 1.328 0 00-1.329-1.328H41.83zm33.203 5.313H43.156v-2.657h31.875v2.657z" fill="#014495"/></svg>