<svg width="91" height="91" viewBox="0 0 91 91" fill="none" xmlns="http://www.w3.org/2000/svg"><path d="M68.11 39.773a3.5 3.5 0 00-1.714-2.174l-1.222-.673a.474.474 0 01-.28-.437c.12-.835.181-1.677.182-2.521 0-.844-.061-1.688-.181-2.523a.478.478 0 01.28-.435l1.223-.674a3.497 3.497 0 001.797-3.547 3.41 3.41 0 00-.465-1.296l-3.384-5.601a3.682 3.682 0 00-4.892-1.275l-1.234.68a.75.75 0 01-.792-.092 19.558 19.558 0 00-4.277-2.375c-.2-.08-.432-.256-.432-.495v-1.35a3.567 3.567 0 00-3.61-3.517h-6.765a3.567 3.567 0 00-3.61 3.516v1.35c0 .238-.232.415-.433.496a19.514 19.514 0 00-4.275 2.373.75.75 0 01-.792.093L32 18.616a3.685 3.685 0 00-4.893 1.274l-3.381 5.603a3.41 3.41 0 00-.383 2.67 3.498 3.498 0 001.713 2.173l1.223.674a.473.473 0 01.279.436c-.12.835-.18 1.678-.182 2.522.001.844.062 1.687.182 2.523a.478.478 0 01-.28.435l-1.223.673a3.498 3.498 0 00-1.798 3.548c.066.46.224.9.466 1.296l3.384 5.6a3.682 3.682 0 004.891 1.276l1.235-.681a.75.75 0 01.792.093 19.56 19.56 0 004.276 2.374c.2.08.432.257.432.495v1.35a3.567 3.567 0 003.61 3.518h6.766a3.567 3.567 0 003.609-3.516v-1.35c0-.239.232-.416.433-.497a19.51 19.51 0 004.275-2.373.75.75 0 01.792-.093l1.235.681a3.681 3.681 0 004.893-1.275l3.38-5.6a3.408 3.408 0 00.383-2.672zm-2.951 1.119l-3.383 5.6a.67.67 0 01-.874.2l-1.235-.68a3.75 3.75 0 00-4.015.3 16.44 16.44 0 01-3.617 2.006 3.572 3.572 0 00-2.319 3.282v1.35a.568.568 0 01-.609.516h-6.765a.569.569 0 01-.609-.516V51.6a3.568 3.568 0 00-2.317-3.28 16.432 16.432 0 01-3.618-2.01 3.844 3.844 0 00-2.265-.75c-.612 0-1.215.154-1.75.45l-1.235.68a.674.674 0 01-.873-.199l-3.384-5.6a.43.43 0 01-.051-.344.513.513 0 01.265-.323l1.223-.675a3.467 3.467 0 001.798-3.481 14.92 14.92 0 01-.15-2.1c.001-.703.051-1.405.15-2.1a3.469 3.469 0 00-1.8-3.485l-1.222-.673a.512.512 0 01-.266-.323.427.427 0 01.053-.343l3.385-5.601a.675.675 0 01.875-.2l1.234.681a3.75 3.75 0 004.016-.3 16.442 16.442 0 013.616-2.007 3.572 3.572 0 002.32-3.282v-1.35a.569.569 0 01.607-.517h6.765a.569.569 0 01.609.516v1.35a3.57 3.57 0 002.317 3.28 16.43 16.43 0 013.618 2.01 3.75 3.75 0 004.016.3l1.234-.68a.67.67 0 01.873.199l3.384 5.6a.427.427 0 01.051.344.513.513 0 01-.265.323l-1.223.675a3.468 3.468 0 00-1.797 3.483 14.89 14.89 0 010 4.2 3.47 3.47 0 001.8 3.484l1.223.674a.512.512 0 01.265.322.423.423 0 01-.055.344z" fill="#014495"/><path d="M45.726 23.468a10.5 10.5 0 1010.5 10.5 10.511 10.511 0 00-10.5-10.5zm0 18a7.5 7.5 0 117.5-7.5 7.509 7.509 0 01-7.5 7.5zm-3 49.5v-21a1.5 1.5 0 00-.44-1.06l-3-3-2.12 2.12 2.56 2.56v20.38h3z" fill="#014495"/><path d="M36.726 62.468a4.5 4.5 0 10-9 0 4.5 4.5 0 009 0zm-6 0a1.5 1.5 0 113 0 1.5 1.5 0 01-3 0z" fill="#E30119"/><path d="M17.226 72.968a4.5 4.5 0 109 0 4.5 4.5 0 00-9 0zm6 0a1.5 1.5 0 11-3 0 1.5 1.5 0 013 0zm9 18v-10.5a1.5 1.5 0 00-.44-1.06l-3-3-2.12 2.12 2.56 2.56v9.88h3zm16.94-22.061a1.5 1.5 0 00-.44 1.06v21h3V70.59l2.56-2.56-2.12-2.122-3 3z" fill="#014495"/><path d="M63.726 62.468a4.5 4.5 0 10-9 0 4.5 4.5 0 009 0zm-6 0a1.5 1.5 0 113 0 1.5 1.5 0 01-3 0z" fill="#E30119"/><path d="M69.726 77.468a4.5 4.5 0 100-9 4.5 4.5 0 000 9zm0-6a1.5 1.5 0 110 2.999 1.5 1.5 0 010-3zm-7.5 9.621l2.56-2.56-2.12-2.122-3 3a1.5 1.5 0 00-.44 1.06v10.5h3V81.09zm-60.7-53.661l4.368 2.308a41.826 41.826 0 005.602 37.572l2.444-1.74a38.816 38.816 0 01-5.354-34.41l3.55 1.877a1.5 1.5 0 002.192-1.48l-1.05-10.21a38.972 38.972 0 0167.758 5.114l-3.807.99a1.5 1.5 0 00-.622 2.57l7.603 6.787c.34 2.036.513 4.097.516 6.162a38.73 38.73 0 01-7.233 22.627l2.444 1.743a41.727 41.727 0 007.79-24.37 40.917 40.917 0 00-.547-6.61l3.462-9.983a1.5 1.5 0 00-1.8-1.943l-4.858 1.262a41.973 41.973 0 00-73.274-5.897l-9.2 4.985a1.5 1.5 0 00.016 2.646zm85.363.612l-1.887 5.445-4.302-3.837 6.19-1.608zm-76.413-4.701l.587 5.733-5.655-2.988 5.068-2.745z" fill="#014495"/></svg>