<svg width="85" height="85" viewBox="0 0 85 85" fill="none" xmlns="http://www.w3.org/2000/svg"><path d="M82.436 28.24a1.243 1.243 0 00-2.34.84 39.711 39.711 0 012.319 12.255H72.129c-.338-8.16-3.987-15.479-9.638-20.644 3.87-1.053 7.365-2.394 10.425-4.005a40.195 40.195 0 014.908 7.247 1.243 1.243 0 002.198-1.162C72.644 8.821 58.267.156 42.5.156c-11.331 0-21.984 4.413-29.997 12.425C4.491 20.594.078 31.247.078 42.578s4.413 21.984 12.425 29.997C20.516 80.587 31.17 85 42.5 85s21.984-4.413 29.997-12.425c8.012-8.013 12.425-18.666 12.425-29.997 0-4.926-.837-9.75-2.486-14.338zM72.89 68.457c-3.054-1.605-6.54-2.942-10.4-3.991 5.65-5.166 9.3-12.485 9.638-20.645h10.286c-.288 9.38-3.827 17.955-9.524 24.636zm-39.394 9.376c-2.18-2.404-4.13-5.656-5.729-9.526a29.643 29.643 0 0013.49 3.9v10.22c-2.693-.37-5.352-1.94-7.76-4.594zm10.246 4.595v-10.22a29.457 29.457 0 0013.487-3.896c-1.599 3.867-3.547 7.118-5.727 9.52-2.409 2.655-5.069 4.224-7.76 4.596zm25.928-39.85c0 14.983-12.189 27.172-27.171 27.172a27.225 27.225 0 01-23.73-13.925 1.243 1.243 0 10-2.17 1.213 29.648 29.648 0 005.9 7.43c-3.857 1.05-7.34 2.385-10.39 3.989C6.41 61.776 2.872 53.2 2.584 43.82h10.284c.108 2.61.555 5.18 1.334 7.656a1.243 1.243 0 102.37-.746 27.134 27.134 0 01-1.245-8.153c0-14.982 12.19-27.171 27.172-27.171 14.982 0 27.171 12.189 27.171 27.171zM12.108 16.701c3.055 1.605 6.542 2.942 10.4 3.99-5.65 5.166-9.299 12.485-9.637 20.644H2.585c.288-9.379 3.826-17.953 9.523-24.634zm39.395-9.377c2.18 2.402 4.128 5.653 5.727 9.52a29.457 29.457 0 00-13.487-3.895V2.729c2.691.37 5.351 1.94 7.76 4.595zM41.257 2.729v10.22a29.456 29.456 0 00-13.487 3.895c1.599-3.867 3.547-7.118 5.727-9.52 2.409-2.655 5.069-4.224 7.76-4.595zm29.931 12.053c-3.097 1.566-6.66 2.854-10.62 3.843-2.356-6.751-5.617-11.906-9.376-15.032a39.821 39.821 0 0119.996 11.19zM33.801 3.6c-3.756 3.126-7.015 8.279-9.368 15.026-3.949-.984-7.502-2.268-10.594-3.827 5.332-5.5 12.227-9.474 19.962-11.2zM13.84 70.359c3.09-1.558 6.642-2.842 10.592-3.828 2.354 6.747 5.613 11.9 9.369 15.026-7.734-1.725-14.629-5.698-19.961-11.197zm37.359 11.198c3.756-3.126 7.015-8.278 9.368-15.026 3.95.986 7.502 2.27 10.593 3.829-5.332 5.499-12.227 9.472-19.961 11.197z" fill="#014495"/><path d="M60.07 45.234h-2.38a1.243 1.243 0 100 2.486h1.139v9.902a1.243 1.243 0 102.485 0V46.477c0-.686-.556-1.243-1.242-1.243zm-31.918.06a4.47 4.47 0 00-4.466 4.466 4.47 4.47 0 004.976 4.435c-.949 1.53-2.001 2.349-2.033 2.373a1.243 1.243 0 001.487 1.991c.157-.116 3.808-2.889 4.446-8.097a4.47 4.47 0 00-4.41-5.168zm-1.98 4.466c0-1.092.888-1.98 1.98-1.98s1.98.888 1.98 1.98c0 1.091-.888 1.98-1.98 1.98a1.982 1.982 0 01-1.98-1.98zm23.82-4.753a4.47 4.47 0 00-4.466 4.465v5.154a4.47 4.47 0 004.466 4.466 4.47 4.47 0 004.465-4.465v-5.155a4.47 4.47 0 00-4.465-4.465zm1.98 9.62c0 1.091-.888 1.98-1.98 1.98a1.982 1.982 0 01-1.98-1.98v-5.155c0-1.091.888-1.98 1.98-1.98s1.98.889 1.98 1.98v5.154zm-12.9-9.62a4.47 4.47 0 00-4.466 4.465v5.154a4.47 4.47 0 004.466 4.466 4.47 4.47 0 004.465-4.465v-5.155a4.47 4.47 0 00-4.465-4.465zm1.98 9.62c0 1.091-.888 1.98-1.98 1.98a1.982 1.982 0 01-1.98-1.98v-5.155c0-1.091.888-1.98 1.98-1.98s1.98.889 1.98 1.98v5.154z" fill="#014495"/><path d="M28.46 40.15c.686 0 1.242-.557 1.242-1.243v-11.6a1.243 1.243 0 10-2.485 0v11.6c0 .686.556 1.243 1.243 1.243zm8.516 0c2.344 0 4.311-1.489 4.677-3.539.274-1.535-.433-3.544-3.24-4.579a61.587 61.587 0 01-3.193-1.291 1.006 1.006 0 01-.383-.964c.035-.244.21-.84 1.068-1.098 1.748-.526 3.346.746 3.384.776a1.243 1.243 0 001.594-1.907c-.107-.089-2.631-2.172-5.695-1.249-1.523.46-2.6 1.657-2.811 3.125a3.482 3.482 0 001.553 3.447c.055.036.112.067.172.094.067.03 1.658.738 3.45 1.4 1.18.434 1.782 1.094 1.654 1.81-.13.731-1 1.489-2.23 1.489-1.21 0-2.377-.49-3.121-1.312a1.243 1.243 0 00-1.842 1.67c1.207 1.332 3.063 2.127 4.963 2.127zM50.74 26.064a7.05 7.05 0 00-7.042 7.043 7.05 7.05 0 007.042 7.043 7.05 7.05 0 007.043-7.043 7.05 7.05 0 00-7.043-7.043zm0 11.6a4.562 4.562 0 01-4.557-4.557 4.562 4.562 0 014.557-4.557 4.562 4.562 0 014.557 4.557 4.562 4.562 0 01-4.557 4.557z" fill="#E30119"/></svg>