<svg width="82" height="83" viewBox="0 0 82 83" fill="none" xmlns="http://www.w3.org/2000/svg"><path d="M80.235 39.171h-6.046v3.023h4.535v37.783h-21.16V42.194h7.557v-3.023h-9.067a1.511 1.511 0 00-1.512 1.512v1.511h-10.95a3.068 3.068 0 01-2.652-1.542l-3.146-5.508a10.494 10.494 0 01-1.388-5.205V27.08a6.045 6.045 0 10-12.09 0v2.053c0 2.569.179 5.134.535 7.678l.755 5.382H6.18a6.045 6.045 0 00-2 11.75 6.045 6.045 0 003.024 9.069 6.046 6.046 0 003.022 9.068 6.045 6.045 0 005.022 9.408H40.94c.192 0 .383-.037.56-.108l13.042-5.217v5.325A1.511 1.511 0 0056.053 83h24.182a1.511 1.511 0 001.511-1.511V40.683a1.511 1.511 0 00-1.511-1.512zM40.65 78.466H15.247a3.023 3.023 0 010-6.045h10.58a1.512 1.512 0 000-3.023H12.225a3.023 3.023 0 010-6.045h12.09a1.511 1.511 0 000-3.023H9.203a3.023 3.023 0 010-6.045h13.602a1.511 1.511 0 100-3.023H6.18a3.023 3.023 0 010-6.045h21.16a1.51 1.51 0 001.495-1.722l-.991-7.103a52.615 52.615 0 01-.505-7.255v-2.056a3.023 3.023 0 016.045 0v2.858c0 2.351.615 4.662 1.782 6.704l3.147 5.51a6.094 6.094 0 005.28 3.064h10.95v27.692L40.65 78.466z" fill="#014495"/><path d="M71.167 39.171h-3.023v3.023h3.023V39.17zM63.61 72.42a4.534 4.534 0 109.068 0 4.534 4.534 0 00-9.068 0zm4.534-1.51a1.511 1.511 0 110 3.022 1.511 1.511 0 010-3.023z" fill="#014495"/><path d="M64.045 9.08a1.511 1.511 0 00-1.209-1.015l-6.498-.993L53.411.865a1.511 1.511 0 00-2.733 0L47.75 7.072l-6.499.993a1.511 1.511 0 00-.853 2.55l4.751 4.853-1.124 6.87a1.512 1.512 0 002.22 1.567l5.803-3.198 5.804 3.198a1.502 1.502 0 001.363.049 1.51 1.51 0 00.858-1.616l-1.125-6.87 4.74-4.853a1.51 1.51 0 00.357-1.536zm-7.8 4.82a1.511 1.511 0 00-.41 1.3l.75 4.557-3.808-2.1a1.512 1.512 0 00-1.459 0l-3.81 2.101.745-4.558a1.511 1.511 0 00-.41-1.3l-3.229-3.293 4.383-.668a1.512 1.512 0 001.14-.85l1.905-4.039 1.9 4.034a1.511 1.511 0 001.14.85l4.383.669-3.22 3.297z" fill="#E30119"/></svg>