<svg width="83" height="83" viewBox="0 0 83 83" fill="none" xmlns="http://www.w3.org/2000/svg"><path d="M37.822 58.063l-20.134-20.11 2.782-2.782 17.352 17.376 40.78-40.78 2.758 2.757-43.538 43.539z" fill="#E30119"/><path d="M41.726 82.638c-22.598 0-41-18.402-41-41s18.402-41 41-41a41.071 41.071 0 0125.991 9.298l-2.464 3.026a37.15 37.15 0 00-23.527-8.42c-20.451 0-37.095 16.645-37.095 37.096 0 20.451 16.644 37.095 37.095 37.095 20.452 0 37.096-16.644 37.096-37.095a36.961 36.961 0 00-2.197-12.593l3.661-1.318a40.86 40.86 0 012.416 13.91c.024 22.6-18.377 41-40.976 41z" fill="#014495"/></svg>