<svg width="77" height="88" viewBox="0 0 77 88" fill="none" xmlns="http://www.w3.org/2000/svg"><path d="M45.474 35.249c.393.261.916.13 1.44-.131.393-.262.654-.785.523-1.31l-1.308-7.721 5.628-5.366c.392-.393.523-.916.392-1.31-.13-.523-.523-.784-1.047-.915l-7.722-1.178-3.403-6.937c-.392-.916-1.963-.916-2.356 0l-3.403 6.937-7.722 1.178c-.523.13-.916.392-1.047.916-.13.523 0 1.047.393 1.309l5.628 5.366-1.309 7.722c-.13.524.13 1.047.523 1.309.393.261.917.392 1.44.13l6.937-3.664 6.413 3.665zM32.78 31.715l1.047-5.759c.13-.393-.131-.916-.393-1.178l-4.188-4.057 5.759-.786c.392 0 .785-.392 1.047-.654l2.617-5.235 2.618 5.235c.13.393.523.654 1.047.654l5.759.786-4.188 4.057c-.262.262-.393.785-.393 1.178l1.047 5.759-5.104-2.749c-.131-.13-.393-.13-.655-.13-.261 0-.392 0-.654.13l-5.366 2.749z" fill="#E30119"/><path d="M75.054 84.591H59.348v-12.04c0-.786-.524-1.31-1.31-1.31h-6.02v-6.675c0-.785-.523-1.309-1.309-1.309H43.38v-14.79c0-.13.262-.392.393-.392 6.282-1.832 11.91-6.937 15.575-14.266 8.376-4.45 13.48-13.088 13.48-22.643V9.465c0-.786-.523-1.309-1.308-1.309h-7.068c0-2.094-.13-4.843-.262-6.152-.13-.654-.654-1.177-1.308-1.177h-48.82c-.654 0-1.178.523-1.308 1.177-.131 1.31-.262 4.058-.262 6.152H5.293c-.785 0-1.309.523-1.309 1.309v1.832c0 9.685 5.105 18.324 13.481 22.643 3.796 7.33 9.293 12.303 15.575 14.266.262 0 .393.262.393.393v14.79h-7.33c-.785 0-1.308.523-1.308 1.308v6.675h-6.02c-.786 0-1.31.524-1.31 1.309v11.91H2.021c-.785 0-1.309.524-1.309 1.31 0 .784.524 1.308 1.31 1.308h73.032c.785 0 1.308-.524 1.308-1.309 0-.785-.654-1.309-1.308-1.309zm-4.581-73.294c0 7.33-3.403 14.135-9.031 18.324 2.094-5.497 3.272-11.91 3.272-18.847h5.759v.523zm-63.87 0v-.523h5.758c0 6.806 1.178 13.219 3.272 18.716-5.628-4.188-9.03-10.863-9.03-18.193zm27.353 34.291c-5.758-1.701-10.863-6.413-14.266-13.219-3.01-6.02-4.711-13.48-4.711-21.595 0-1.833.13-5.367.261-7.33h46.594c.131 2.094.262 5.628.262 7.33 0 8.114-1.57 15.575-4.58 21.595-3.404 6.806-8.508 11.518-14.267 13.22-1.44.392-2.356 1.57-2.356 2.879v14.79h-4.58v-14.79c-.132-1.31-1.048-2.487-2.357-2.88zm-6.413 20.418h21.858v5.366H27.543v-5.366zm-7.198 18.585V73.86H56.86v10.73H20.345z" fill="#014495"/></svg>