<svg width="27" height="25" viewBox="0 0 27 25" fill="none" xmlns="http://www.w3.org/2000/svg"><path d="M17.676 8.27a8.337 8.337 0 018.494 8.199 8.4 8.4 0 01-.195 1.975 15.17 15.17 0 00-.378 3.266v2.126a.59.59 0 01-.59.59h-2.125c-1.1 0-2.193.14-3.267.378a8.4 8.4 0 01-1.975.194 8.337 8.337 0 01-8.198-8.493 8.365 8.365 0 018.234-8.234z" fill="url(#paint0_linear_203_734)"/><path d="M17.676 8.27a8.337 8.337 0 018.494 8.199 8.4 8.4 0 01-.195 1.975 15.17 15.17 0 00-.378 3.266v2.126a.59.59 0 01-.59.59h-2.125c-1.1 0-2.193.14-3.267.378a8.4 8.4 0 01-1.975.194 8.337 8.337 0 01-8.198-8.493 8.365 8.365 0 018.234-8.234z" fill="#E30119"/><path d="M11.178.637A10.157 10.157 0 00.831 10.625c-.016.827.066 1.633.237 2.406.288 1.308.46 2.64.46 3.98v2.59c0 .396.322.718.718.718h2.59c1.34 0 2.671.171 3.98.46.772.17 1.578.253 2.405.237a10.157 10.157 0 009.988-10.348C21.127 5.166 16.681.721 11.18.637z" fill="#014495"/><path d="M7.372 10.28a1.578 1.578 0 10-2.23 2.23l3.406 3.405a1.579 1.579 0 102.23-2.23l-3.406-3.404z" fill="url(#paint1_linear_203_734)"/><path d="M6.223 12.94a1.579 1.579 0 100-3.157 1.579 1.579 0 000 3.157z" fill="#fff"/><path d="M11.836 10.28a1.578 1.578 0 10-2.23 2.23l3.406 3.405a1.579 1.579 0 102.23-2.23l-3.406-3.404z" fill="url(#paint2_linear_203_734)"/><path d="M10.687 12.94a1.579 1.579 0 100-3.157 1.579 1.579 0 000 3.157z" fill="#fff"/><path d="M16.3 10.28a1.578 1.578 0 10-2.23 2.23l3.406 3.405a1.579 1.579 0 102.23-2.23L16.3 10.282z" fill="url(#paint3_linear_203_734)"/><path d="M15.152 12.94a1.579 1.579 0 100-3.157 1.579 1.579 0 000 3.157z" fill="#fff"/><defs><linearGradient id="paint0_linear_203_734" x1="16.117" y1="14.947" x2="28.399" y2="27.228" gradientUnits="userSpaceOnUse"><stop stop-color="#A7F3CE"/><stop offset="1" stop-color="#61DB99"/></linearGradient><linearGradient id="paint1_linear_203_734" x1="9.735" y1="14.873" x2="2.908" y2="8.046" gradientUnits="userSpaceOnUse"><stop stop-color="#00A2F3" stop-opacity="0"/><stop offset="1" stop-color="#0075CD"/></linearGradient><linearGradient id="paint2_linear_203_734" x1="14.198" y1="14.873" x2="7.372" y2="8.046" gradientUnits="userSpaceOnUse"><stop stop-color="#00A2F3" stop-opacity="0"/><stop offset="1" stop-color="#0075CD"/></linearGradient><linearGradient id="paint3_linear_203_734" x1="18.663" y1="14.873" x2="11.836" y2="8.046" gradientUnits="userSpaceOnUse"><stop stop-color="#00A2F3" stop-opacity="0"/><stop offset="1" stop-color="#0075CD"/></linearGradient></defs></svg>