<svg width="54" height="54" viewBox="0 0 54 54" fill="none" xmlns="http://www.w3.org/2000/svg"><path fill-rule="evenodd" clip-rule="evenodd" d="M46.475 18.571h6.731l-.661 3.596h-2.733l-.634 3.394h2.446l-.604 3.395h-2.446l-2.617 14.7h-3.998l4.516-25.085zm-1.439 0h-4.084l-2.474 13.204c-.173.892-.317 1.467-.431 1.726-.144.23-.317.345-.576.345-.23 0-.374-.115-.403-.316-.029-.23.03-.72.173-1.525l2.53-13.434h-4.113l-1.985 10.614c-.374 2.014-.604 3.338-.661 3.97-.029.633.057 1.237.316 1.813.23.575.69 1.035 1.352 1.38.662.374 1.438.547 2.388.547.863 0 1.61-.144 2.301-.46.69-.288 1.266-.748 1.755-1.324.489-.575.834-1.15 1.007-1.697.201-.546.403-1.496.661-2.877l2.244-11.966zM28.323 30.107c.173-2.043.432-4.517.806-7.508-1.064 3.423-1.784 5.896-2.158 7.508h1.352zm4.171-11.536l-1.265 17.95H27.46l.403-3.25h-1.438l-.863 3.25h-4.085l5.753-17.95h5.264zm-8.514 0h-3.452l-1.496 8.084-.806-8.084h-3.423l-3.365 17.95h3.451l1.525-8.169.604 8.17h3.596l3.366-17.95zm-11.018.144l-3.394 8.112.834 9.694H6.634l-.69-6.414-1.209 6.414H.794l4.114-26.177h3.94L6.835 24.67l2.503-5.955h3.624z" fill="#00ACEC"/></svg>